<svg xmlns="http://www.w3.org/2000/svg" width="1100" height="620" viewBox="0 0 1100 620">
  <defs>
    <style>
      .state { stroke: #0f172a; stroke-width: 2.5; fill: #ffffff; }
      .arrow { stroke: #0f172a; stroke-width: 2.5; fill: none; marker-end: url(#m); }
      .label { font: 28px 'Segoe UI', Tahoma, sans-serif; fill: #0f172a; }
      .title { font: 30px 'Segoe UI', Tahoma, sans-serif; fill: #0f172a; font-weight: 600; }
    </style>
    <marker id="m" viewBox="0 0 10 10" refX="9" refY="5" markerWidth="7" markerHeight="7" orient="auto-start-reverse">
      <path d="M 0 0 L 10 5 L 0 10 z" fill="#0f172a" />
    </marker>
  </defs>

  <text class="title" x="40" y="48">Naloga 3 - Diagram stanj (predloga)</text>

  <circle class="state" cx="300" cy="320" r="90" />
  <text class="label" x="227" y="330">Mirovanje</text>

  <circle class="state" cx="560" cy="180" r="90" />
  <text class="label" x="514" y="190">Smer1</text>

  <circle class="state" cx="820" cy="320" r="90" />
  <text class="label" x="774" y="330">Smer2</text>

  <line class="arrow" x1="80" y1="320" x2="210" y2="320" />
  <text class="label" x="90" y="300">zacetek</text>

  <path class="arrow" d="M 378 272 Q 450 220 470 205" />
  <text class="label" x="390" y="220">A & !K2</text>

  <path class="arrow" d="M 385 355 Q 560 450 735 355" />
  <text class="label" x="525" y="470">B & K1</text>

  <path class="arrow" d="M 560 270 Q 560 360 370 350" />
  <text class="label" x="500" y="330">stop</text>

  <path class="arrow" d="M 740 280 Q 640 230 620 220" />
  <text class="label" x="680" y="220">blokada</text>

  <path class="arrow" d="M 760 370 Q 640 470 360 370" />
  <text class="label" x="620" y="520">stop</text>
</svg>
